# xmcd CD database file
#
# Track frame offsets:
#	150
#	20518
#	34107
#	52286
#	66607
#	83560
#	94244
#	108004
#	120134
#	132622
#	147283
#	158000
#	173399
#	186606
#
# Disc length: 2708 seconds
#
# Revision: 0
# Processed by: cddbd v1.5.2PL0 Copyright (c) Steve Scherf et al.
# Submitted via: CDex 1.70beta2
#
DISCID=be0a920e
DTITLE=Floating Action - Floating Action
DYEAR=2009
DGENRE=Country
TTITLE0=50 Lashes
TTITLE1=Marie Claire
TTITLE2=To Connect
TTITLE3=Unrobbed
TTITLE4=Edge of the World
TTITLE5=So Vapor
TTITLE6=Don't Stop (Loving Me Now)
TTITLE7=Cinder Cone
TTITLE8=Cinder Cone (part II)
TTITLE9=Dying Punch
TTITLE10=Could You Save Me
TTITLE11=Say Goodbye
TTITLE12=Tide of Green
TTITLE13=Pills to Grind
EXTD=YEAR: 2009
EXTT0=
EXTT1=
EXTT2=
EXTT3=
EXTT4=
EXTT5=
EXTT6=
EXTT7=
EXTT8=
EXTT9=
EXTT10=
EXTT11=
EXTT12=
EXTT13=
PLAYORDER=
